<?xml version="1.0" encoding="UTF-8" standalone="no"?>
<!DOCTYPE svg PUBLIC "-//W3C//DTD SVG 1.1//EN" "http://www.w3.org/Graphics/SVG/1.1/DTD/svg11.dtd">
<svg width="100%" height="100%" viewBox="0 0 400 107" version="1.1" xmlns="http://www.w3.org/2000/svg" xmlns:xlink="http://www.w3.org/1999/xlink" xml:space="preserve" xmlns:serif="http://www.serif.com/" style="fill-rule:evenodd;clip-rule:evenodd;stroke-linecap:round;stroke-linejoin:round;stroke-miterlimit:1.5;">
    <g id="svgg">
        <g transform="matrix(1.04092,0,0,1.12117,-11.5198,-10.4904)">
            <path d="M389.905,36.911C389.905,25.793 380.183,16.767 368.208,16.767L38.588,16.767C26.613,16.767 16.891,25.793 16.891,36.911L16.891,77.199C16.891,88.317 26.613,97.343 38.588,97.343L368.208,97.343C380.183,97.343 389.905,88.317 389.905,77.199L389.905,36.911Z" style="fill:white;stroke:rgb(52,36,164);stroke-width:2.31px;"/>
        </g>
        <path id="path0" d="M144.667,41.293L144.667,60.919L145.176,61.144C145.874,61.453 146.815,62.453 147.119,63.208L147.37,63.833L149.393,63.832L151.417,63.83L151.723,62.79C152.213,61.125 153.233,59.23 154.276,58.045L154.75,57.506L155.145,57.838C155.421,58.069 155.491,58.231 155.378,58.376C154.942,58.937 154,62.417 154,63.468C154,64.326 154.319,63.715 154.658,62.208C154.859,61.315 155.214,60.087 155.446,59.481L155.868,58.379L157.197,58.939C157.928,59.248 158.664,59.5 158.833,59.5C159.523,59.5 159.618,59.641 159.482,60.466C159.411,60.897 159.349,62.131 159.343,63.208L159.333,65.167L158.917,65.167C158.657,65.167 158.5,65.261 158.5,65.417C158.5,65.568 158.655,65.667 158.893,65.667C159.235,65.667 159.735,70.623 159.426,70.959C159.405,70.982 158.832,71.19 158.152,71.421C157.473,71.651 156.705,71.958 156.447,72.103C156.188,72.248 155.952,72.34 155.923,72.308C155.728,72.1 155.009,70.074 154.822,69.208C154.69,68.593 154.511,68.167 154.385,68.167C154.059,68.167 154.291,69.514 154.903,71.167C155.468,72.696 155.458,72.759 154.569,73.265C153.751,73.732 151.754,70.036 151.386,67.375L151.288,66.667L149.331,66.667L147.374,66.667L147.157,67.189C146.859,67.909 146.261,68.586 145.397,69.18L144.667,69.683L144.667,83.5L153.155,83.5L153.203,81.837L153.25,80.174L153.833,80.715C161.461,87.791 174.247,84.931 178.981,75.09C181.322,70.222 181.721,63.334 179.958,58.25C179.767,57.699 178.447,54.943 178.122,54.418C177.528,53.457 175.699,51.428 174.664,50.581C173.26,49.432 172.374,48.918 169.952,47.846C167.443,46.735 162.995,46.413 160.15,47.137C158.821,47.475 156.5,48.468 156.5,48.699C156.5,48.773 156.422,48.833 156.327,48.833C156.039,48.833 155.139,49.528 154.125,50.534L153.167,51.486L153.167,36.576L153.167,21.667L148.917,21.667L144.667,21.667L144.667,41.293M306.333,52.583L306.333,83.5L314.982,83.5L315.046,72.625C315.123,59.29 315.208,58.735 317.505,56.491C320.8,53.273 326.298,53.948 328.129,57.796L328.583,58.75L328.673,83.5L337.347,83.5L337.292,70.458L337.238,57.417L336.774,55.684C335.197,49.79 331.038,46.764 324.5,46.753C321.507,46.749 317.09,48.125 316.45,49.263C316.377,49.393 316.235,49.5 316.136,49.5C316.036,49.5 315.759,49.706 315.519,49.958L315.083,50.417L315.041,36.042L314.998,21.667L310.666,21.667L306.333,21.667L306.333,52.583M212.35,24.26C212.157,24.586 212,24.904 212,24.966C212,25.029 211.743,25.606 211.429,26.249C210.891,27.348 209.881,29.48 208.547,32.333C208.225,33.021 207.625,34.296 207.213,35.167C206.801,36.037 206.238,37.237 205.961,37.833C205.685,38.429 205.122,39.629 204.71,40.5C204.298,41.371 203.808,42.421 203.621,42.833C203.184,43.796 203.038,44.1 202.836,44.458C202.746,44.619 202.4,45.35 202.067,46.083C201.542,47.239 200.393,49.686 199.329,51.917C198.678,53.279 196.711,57.48 195.465,60.167C195.188,60.762 194.568,62.075 194.085,63.083C193.603,64.092 192.965,65.442 192.668,66.083C192.371,66.725 191.791,67.962 191.379,68.833C190.968,69.704 190.405,70.904 190.128,71.5C189.851,72.096 189.288,73.296 188.877,74.167C188.465,75.037 187.975,76.087 187.788,76.5C187.351,77.462 187.204,77.766 187.003,78.125C186.913,78.285 186.535,79.092 186.162,79.917C185.79,80.742 185.263,81.849 184.993,82.377C184.722,82.906 184.5,83.375 184.5,83.419C184.5,83.464 186.664,83.5 189.31,83.5L194.119,83.5L194.831,81.875C195.222,80.981 195.802,79.688 196.119,79C196.711,77.716 197.304,76.422 197.837,75.25C198.004,74.883 198.403,74.021 198.723,73.333C199.044,72.646 199.533,71.577 199.809,70.958L200.312,69.833L224.11,69.833L224.498,70.708C224.712,71.19 225.033,71.921 225.211,72.333C225.39,72.746 225.703,73.458 225.907,73.917C226.38,74.977 227.828,78.311 228.007,78.75C228.082,78.933 228.361,79.571 228.628,80.167C228.894,80.762 229.331,81.754 229.598,82.371L230.083,83.491L234.875,83.496C237.51,83.498 239.667,83.46 239.667,83.412C239.667,83.334 239.083,82.025 238.181,80.083C238.011,79.717 236.203,75.667 234.163,71.083C232.124,66.5 230.328,62.487 230.173,62.167C229.714,61.218 229.552,60.857 221.065,41.875C216.588,31.86 212.874,23.667 212.812,23.667C212.75,23.667 212.542,23.933 212.35,24.26M61.21,24.704C61.111,25.004 60.834,25.756 60.595,26.374C59.833,28.35 59.307,29.738 59.16,30.167C59.026,30.558 58.87,30.969 57.744,33.917C57.499,34.558 57.161,35.458 56.994,35.917C56.826,36.375 56.489,37.275 56.243,37.917C55.14,40.801 54.961,41.275 54.827,41.667C54.688,42.068 54.256,43.219 53.385,45.5C52.483,47.86 52.144,48.768 52.015,49.167C51.94,49.396 51.727,49.958 51.54,50.417C51.218,51.208 50.886,52.089 50.128,54.167C49.944,54.671 49.655,55.421 49.487,55.833C49.181,56.583 48.604,58.107 47.973,59.833C47.529,61.047 46.867,62.764 46.539,63.55L46.275,64.184L45.956,63.384C45.781,62.943 45.487,62.208 45.303,61.75C45.119,61.292 44.816,60.504 44.63,60C44.444,59.496 44.227,59.012 44.146,58.925C44.066,58.838 44,58.66 44,58.529C44,58.399 43.805,57.832 43.567,57.271C42.922,55.751 42.569,54.878 42.075,53.583C41.83,52.942 41.488,52.102 41.315,51.717C41.142,51.333 41,50.941 41,50.847C41,50.753 40.858,50.355 40.684,49.963C40.237,48.953 39.804,47.877 38.918,45.583C38.494,44.483 38.006,43.246 37.833,42.833C37.661,42.421 37.325,41.558 37.086,40.917C36.848,40.275 36.506,39.394 36.326,38.958C36.021,38.217 35.801,37.671 35.017,35.708C34.843,35.273 34.5,34.392 34.253,33.75C34.007,33.108 33.666,32.246 33.496,31.833C33.326,31.421 32.986,30.558 32.742,29.917C32.497,29.275 32.155,28.435 31.982,28.051C31.808,27.666 31.667,27.235 31.667,27.092C31.667,26.864 31.094,26.833 26.833,26.833C24.175,26.833 22,26.891 22,26.961C22,27.125 22.542,28.58 22.884,29.333C23.03,29.654 23.39,30.554 23.685,31.333C23.979,32.112 24.283,32.821 24.36,32.908C24.437,32.995 24.5,33.169 24.5,33.294C24.5,33.419 24.688,33.931 24.917,34.432C25.146,34.933 25.333,35.414 25.333,35.5C25.333,35.587 25.477,35.979 25.652,36.371C25.827,36.763 26.169,37.571 26.412,38.167C26.654,38.762 26.994,39.587 27.167,40C27.339,40.412 27.722,41.387 28.017,42.167C28.312,42.946 28.617,43.655 28.694,43.742C28.77,43.829 28.833,44.009 28.833,44.142C28.833,44.275 29.01,44.766 29.225,45.233C29.44,45.701 29.783,46.533 29.987,47.083C30.351,48.062 30.653,48.82 31.417,50.667C31.625,51.171 31.962,51.996 32.166,52.5C32.369,53.004 32.677,53.737 32.851,54.129C33.025,54.521 33.167,54.916 33.167,55.005C33.167,55.095 33.354,55.557 33.583,56.032C33.813,56.507 34.003,56.975 34.006,57.073C34.009,57.17 34.156,57.55 34.333,57.917C34.51,58.283 34.658,58.675 34.661,58.787C34.664,58.899 34.81,59.312 34.985,59.704C35.274,60.349 35.554,61.024 36.49,63.333C36.657,63.746 36.949,64.458 37.137,64.917C37.326,65.375 37.68,66.275 37.925,66.917C38.17,67.558 38.512,68.398 38.685,68.783C38.858,69.167 39,69.559 39,69.653C39,69.747 39.143,70.145 39.319,70.537C39.607,71.182 39.887,71.857 40.823,74.167C40.991,74.579 41.282,75.292 41.47,75.75C41.659,76.208 42.014,77.108 42.258,77.75C42.503,78.392 42.845,79.231 43.018,79.616C43.192,80 43.333,80.387 43.333,80.475C43.333,80.563 43.475,80.924 43.649,81.276C43.929,81.846 44.648,83.626 45.492,85.844C46.123,87.501 46.192,87.459 47.121,84.833C47.578,83.542 47.814,82.902 48.269,81.708C49.271,79.082 49.526,78.394 49.61,78.083C49.659,77.9 49.809,77.504 49.943,77.203C50.077,76.903 50.325,76.265 50.493,75.787C50.661,75.308 50.998,74.392 51.243,73.75C51.487,73.108 51.727,72.433 51.777,72.25C51.826,72.067 52,71.617 52.162,71.25C52.324,70.883 52.508,70.396 52.57,70.167C52.633,69.938 52.821,69.412 52.989,69C53.156,68.587 53.445,67.837 53.631,67.333C53.816,66.829 54.319,65.479 54.748,64.333C55.177,63.188 55.68,61.837 55.865,61.333C56.05,60.829 56.375,59.967 56.586,59.417C56.798,58.867 57.127,57.985 57.319,57.458C58.203,55.023 58.392,54.521 58.766,53.614C58.987,53.081 59.167,52.556 59.168,52.447C59.168,52.339 59.278,52.04 59.412,51.783C59.546,51.526 59.726,51.076 59.812,50.783C60.539,48.304 61.069,47.383 61.304,48.188C61.45,48.685 62.002,50.211 62.773,52.25C62.912,52.617 63.204,53.404 63.422,54C63.64,54.596 63.931,55.383 64.067,55.75C64.204,56.117 64.55,57.054 64.836,57.833C65.123,58.612 65.542,59.737 65.769,60.333C65.995,60.929 66.283,61.717 66.41,62.083C66.536,62.45 66.836,63.275 67.077,63.917C67.318,64.558 67.669,65.533 67.857,66.083C68.045,66.633 68.257,67.158 68.327,67.25C68.398,67.342 68.498,67.604 68.549,67.833C68.601,68.063 68.869,68.85 69.145,69.583C69.421,70.317 69.845,71.442 70.087,72.083C70.329,72.725 70.627,73.55 70.749,73.917C70.871,74.283 71.173,75.108 71.42,75.75C72.053,77.391 72.641,78.969 72.91,79.75C73.036,80.117 73.324,80.904 73.55,81.5C74.006,82.701 74.23,83.31 74.715,84.667C75.647,87.279 75.733,87.405 76.062,86.649C76.472,85.705 77.837,82.465 78.161,81.667C78.328,81.254 78.704,80.354 78.996,79.667C79.288,78.979 79.591,78.267 79.669,78.083C79.746,77.9 80.008,77.262 80.25,76.667C80.493,76.071 80.833,75.283 81.006,74.917C81.179,74.55 81.577,73.612 81.89,72.833C82.596,71.076 82.705,70.815 83.587,68.75C83.979,67.833 84.501,66.596 84.748,66C84.994,65.404 85.293,64.692 85.411,64.417C85.684,63.783 86.373,62.139 86.931,60.792C87.168,60.219 87.459,59.525 87.578,59.25C87.935,58.42 88.678,56.636 89.035,55.75C89.22,55.292 89.426,54.804 89.493,54.667C89.602,54.441 90.265,52.856 91.201,50.583C91.39,50.125 91.679,49.45 91.843,49.083C92.008,48.717 92.345,47.929 92.593,47.333C92.84,46.737 93.183,45.932 93.355,45.543C93.526,45.155 93.667,44.798 93.667,44.75C93.667,44.702 93.823,44.308 94.014,43.873C94.205,43.439 94.535,42.671 94.747,42.167C94.96,41.662 95.45,40.5 95.836,39.583C96.743,37.431 97.473,35.719 97.767,35.058C97.895,34.769 98,34.478 98,34.41C98,34.342 98.14,33.978 98.312,33.602C98.484,33.225 98.83,32.429 99.081,31.833C99.574,30.661 99.752,30.25 100.385,28.809C100.613,28.291 100.851,27.635 100.913,27.35L101.026,26.833L96.304,26.833L91.581,26.833L91.357,27.339C91.234,27.618 90.834,28.574 90.469,29.464C90.104,30.355 89.465,31.908 89.05,32.917C88.308,34.717 87.974,35.547 87.357,37.125C87.187,37.56 86.933,38.179 86.792,38.5C86.652,38.821 86.379,39.477 86.185,39.958C85.992,40.44 85.675,41.227 85.481,41.708C85.288,42.19 84.959,42.996 84.75,43.5C84.307,44.571 83.763,45.91 83.295,47.083C82.984,47.863 82.527,48.964 81.948,50.333C81.812,50.654 81.496,51.442 81.246,52.083C80.995,52.725 80.658,53.55 80.497,53.917C80.336,54.283 79.998,55.108 79.747,55.75C79.496,56.392 79.15,57.231 78.978,57.616C78.807,58 78.667,58.387 78.667,58.475C78.667,58.563 78.518,58.924 78.336,59.276C78.025,59.879 77.03,62.264 76.593,63.455C76.299,64.255 76.241,64.248 75.932,63.379C75.174,61.244 74.192,58.583 73.813,57.636C73.641,57.206 73.5,56.774 73.5,56.676C73.5,56.577 73.362,56.178 73.194,55.79C73.026,55.401 72.794,54.821 72.679,54.5C72.564,54.179 72.146,53.017 71.752,51.917C71.357,50.817 70.939,49.654 70.824,49.333C70.709,49.012 70.445,48.3 70.239,47.75C70.032,47.2 69.701,46.3 69.503,45.75C69.305,45.2 69.009,44.375 68.844,43.917C68.68,43.458 68.338,42.521 68.085,41.833C67.833,41.146 67.485,40.19 67.313,39.708C66.21,36.625 65.787,35.47 65.268,34.123C65.029,33.504 64.833,32.921 64.833,32.83C64.833,32.738 64.691,32.345 64.517,31.957C64.343,31.568 64.16,31.1 64.11,30.917C64.061,30.733 63.782,29.946 63.491,29.167C62.77,27.24 62.345,26.072 62.006,25.093C61.66,24.089 61.449,23.986 61.21,24.704M286.167,41.167L286.167,47.667L284.417,47.667L282.667,47.667L282.667,55.5L286.167,55.5L286.167,83.506L290.458,83.461L294.75,83.417L294.793,69.458L294.835,55.5L301.167,55.5L301.167,51.583L301.167,47.667L298,47.667L294.833,47.667L294.833,41.167L294.833,34.667L290.5,34.667L286.167,34.667L286.167,41.167M212.667,43.23C212.667,43.438 212.985,44.217 213.835,46.083C214.169,46.819 214.414,47.378 215.583,50.083C216.019,51.092 216.516,52.235 216.688,52.625C216.86,53.015 217.14,53.652 217.312,54.042C217.484,54.431 217.982,55.575 218.419,56.583C219.707,59.557 219.775,59.709 220.225,60.667L220.657,61.583L212.385,61.627C207.836,61.65 204.078,61.633 204.033,61.588C203.944,61.5 204.418,60.39 205.706,57.667C206.161,56.704 207.313,54.176 208.266,52.048C210.293,47.519 211.138,45.669 212.151,43.542C212.419,42.98 212.667,42.83 212.667,43.23M116.917,46.899C113.849,47.488 111.861,48.298 109.508,49.917C106.976,51.659 104.111,55.93 102.856,59.833C101.144,65.163 102.13,73.353 104.937,77.114C105.155,77.406 105.333,77.709 105.333,77.787C105.333,78.038 107.506,80.321 108.478,81.092C108.994,81.501 109.501,81.904 109.603,81.988C109.706,82.071 110.343,82.416 111.02,82.754C111.696,83.092 112.376,83.434 112.531,83.513C114.038,84.282 119.129,84.846 121.694,84.528C127.535,83.803 131.345,81.754 134.451,77.667C136.162,75.416 136.219,75.202 135.249,74.704C134.942,74.546 133.432,73.704 131.893,72.833C130.354,71.962 129.048,71.229 128.99,71.203C128.933,71.178 128.581,71.628 128.208,72.203C124.293,78.244 116.22,78.619 112.431,72.936C112.011,72.305 111.667,71.683 111.667,71.553C111.667,71.423 111.553,71.098 111.415,70.83C111.229,70.471 110.667,68.125 110.667,67.708C110.667,67.685 116.404,67.667 123.417,67.667L136.167,67.667L136.167,65.247C136.167,59.41 134.309,54.398 130.938,51.139C129.631,49.875 129.547,49.805 128.752,49.321C127.576,48.605 127.421,48.515 127.167,48.403C127.029,48.342 126.506,48.11 126.004,47.888C123.754,46.892 119.415,46.42 116.917,46.899M363.583,46.776C360.643,47.252 358.356,48.4 356.227,50.47C356.036,50.655 356,50.45 356,49.179L356,47.667L351.75,47.667L347.5,47.667L347.5,83.5L355.982,83.5L356.044,72.708L356.106,61.917L356.535,60.25C357.7,55.726 359.154,54.5 363.359,54.5C367.137,54.5 368.249,55.309 369.311,58.833L369.737,60.25L369.793,71.875L369.848,83.5L378.348,83.5L378.288,70.292C378.217,54.895 378.213,54.854 376.326,51.879C375.516,50.601 372.789,48.167 372.168,48.167C372.086,48.167 371.771,48.022 371.468,47.846C370.159,47.084 365.547,46.459 363.583,46.776M245.045,60.292L245.121,72.917L245.559,74.485C245.8,75.348 246.11,76.227 246.248,76.438C246.387,76.649 246.5,76.911 246.5,77.02C246.5,77.129 246.688,77.464 246.917,77.765C247.146,78.065 247.333,78.393 247.333,78.493C247.333,79.17 252.283,83.167 253.122,83.167C253.21,83.167 253.525,83.288 253.822,83.436C257.862,85.451 265.853,84.688 269.726,81.917C272.367,80.027 273.874,78.104 274.822,75.417C275.588,73.246 275.667,71.745 275.667,59.304L275.667,47.667L271.417,47.667L267.167,47.667L267.167,58.708C267.167,71.034 267.108,71.882 266.114,73.649C263.436,78.409 256.069,77.807 254.088,72.666L253.606,71.417L253.536,59.542L253.467,47.667L249.218,47.667L244.97,47.667L245.045,60.292M121.583,54.366C124.271,54.869 127.5,58.225 127.5,60.515C127.5,60.604 124.168,60.667 119.417,60.667C114.971,60.667 111.333,60.643 111.333,60.613C111.333,60.284 112.017,58.721 112.475,58.005C114.474,54.876 117.613,53.622 121.583,54.366M163.897,54.41C164.279,54.994 164.992,57.248 165.144,58.358L165.274,59.299L164.678,59.398C163.88,59.53 161.34,59.526 160.67,59.392C160.067,59.272 160.072,59.372 160.551,57.167C160.778,56.125 161.356,54.644 161.706,54.208C162.033,53.802 163.593,53.946 163.897,54.41M165.757,54.353C166.628,54.572 168.007,55.81 168.803,57.088L169.319,57.917L168.451,58.307C167.622,58.679 165.965,59.187 165.874,59.096C165.85,59.072 165.617,58.196 165.357,57.149C165.096,56.102 164.757,55.002 164.604,54.706C164.275,54.071 164.439,54.021 165.757,54.353M160.579,55.445C160.349,56.056 160.077,57.061 159.975,57.678C159.709,59.288 159.428,59.369 157.333,58.448C157.012,58.306 156.62,58.151 156.461,58.102C156.116,57.995 156.208,57.676 156.823,56.833C157.897,55.365 158.75,54.697 159.819,54.488C161.069,54.244 161.043,54.211 160.579,55.445M169.25,55.73C169.708,56.007 170.143,56.33 170.217,56.45C170.29,56.569 170.477,56.669 170.633,56.672C170.851,56.676 170.806,56.775 170.44,57.096C169.912,57.56 169.695,57.555 169.429,57.073C169.33,56.896 168.926,56.356 168.529,55.875C167.749,54.929 167.878,54.904 169.25,55.73M156.556,56.292C156.397,56.878 155.742,57.519 155.426,57.397C155.162,57.296 155.206,57.203 155.771,56.657C156.502,55.951 156.67,55.872 156.556,56.292M171.723,57.784C173.217,59.683 174.253,62.094 174.448,64.125L174.548,65.167L173.024,65.167L171.5,65.167L171.5,64.041C171.5,62.803 170.91,60.21 170.342,58.957L169.984,58.165L170.45,57.754C171.051,57.226 171.288,57.231 171.723,57.784M169.746,58.826C170.278,59.854 170.823,61.977 170.957,63.542L171.096,65.167L168.657,65.167L166.218,65.167L166.107,63.125C166.046,62.002 165.95,60.768 165.894,60.383C165.796,59.715 165.813,59.679 166.271,59.583C167.327,59.363 168.603,58.871 169.454,58.356C169.475,58.344 169.606,58.555 169.746,58.826M163.534,59.948C165.107,59.868 165.329,59.89 165.405,60.137C165.473,60.353 165.831,64.457 165.833,65.032C165.833,65.096 165.52,65.171 165.138,65.199C164.144,65.272 164.086,65.667 165.069,65.667C165.571,65.667 165.832,65.738 165.831,65.875C165.823,66.448 165.491,70.138 165.414,70.5L165.325,70.917L162.681,70.917L160.037,70.917L159.929,69.25C159.869,68.333 159.776,67.152 159.722,66.625L159.624,65.667L160.409,65.667C161.422,65.667 161.365,65.272 160.342,65.198L159.626,65.146L159.724,64.198C159.779,63.676 159.872,62.456 159.932,61.485L160.042,59.72L160.896,59.879C161.366,59.966 162.553,59.997 163.534,59.948M170.948,67.226C170.848,68.746 170.347,70.679 169.757,71.82L169.49,72.335L168.87,72.022C168.529,71.849 167.698,71.531 167.024,71.316L165.799,70.923L165.905,70.17C165.963,69.756 166.057,68.573 166.114,67.542L166.218,65.667L171.05,65.667L170.948,67.226M174.442,66.625C174.201,68.811 172.955,71.614 171.589,73.044L171.15,73.504L170.579,73.069L170.009,72.634L170.279,72.025C170.81,70.831 171.482,67.927 171.491,66.792L171.5,65.667L174.547,65.667L174.442,66.625M164.542,71.274C165.356,71.408 165.385,72.098 164.671,74.321C163.918,76.663 163.644,77.029 162.69,76.967L161.917,76.917L161.36,75.789C160.869,74.795 160.538,73.66 160.221,71.886C160.13,71.373 160.148,71.354 160.772,71.289C161.885,71.174 163.891,71.166 164.542,71.274M159.982,73.029C160.174,74.15 160.893,76.282 161.179,76.575C161.736,77.146 160.368,76.98 159.417,76.361C157.948,75.407 156.245,73.483 156.361,72.909C156.466,72.391 159.45,71.344 159.688,71.742C159.746,71.838 159.878,72.417 159.982,73.029M168.167,72.242C168.762,72.495 169.274,72.724 169.304,72.752C169.561,72.992 167.414,75.445 166.274,76.214C164.629,77.325 163.958,77.157 164.677,75.814C164.856,75.48 165.358,73.722 165.677,72.316L165.851,71.548L166.467,71.665C166.806,71.73 167.571,71.99 168.167,72.242M156.135,73.66C156.336,73.931 156.503,74.212 156.508,74.285C156.512,74.357 156.845,74.752 157.249,75.162C157.652,75.571 157.957,75.932 157.925,75.964C157.796,76.093 156.126,75.091 155.463,74.486L154.75,73.836L155.143,73.502C155.654,73.067 155.703,73.075 156.135,73.66M170.369,73.497C170.715,73.82 170.716,73.836 170.415,74.169C170.008,74.619 167.903,76.001 167.63,75.997C167.488,75.996 167.476,75.954 167.595,75.872C167.928,75.644 169.303,73.86 169.413,73.512C169.551,73.077 169.912,73.071 170.369,73.497" style="fill:rgb(52,36,164);"/>
        <path id="path1" d="M141.49,61.472C138.074,63.073 138.216,67.876 141.714,69.063C143.735,69.749 145.797,68.862 146.667,66.933L147.083,66.009L150.292,66.005L153.5,66L153.5,67.5L155,67.5L155,66.75C155,66.004 155.003,66 155.583,66L156.167,66L156.167,68.167L157.833,68.167L157.833,66.333L157.833,64.5L152.458,64.493L147.083,64.486L146.677,63.618C145.71,61.553 143.376,60.588 141.49,61.472M144.378,63.431C146.15,64.75 145.22,67.49 143,67.489C140.586,67.488 139.784,64.35 141.917,63.247C142.56,62.915 143.809,63.008 144.378,63.431M161.939,63.512C161.423,63.918 161.333,64.873 161.766,65.351C162.009,65.62 162.009,65.744 161.766,66.814C161.33,68.731 161.295,68.667 162.771,68.667L164.042,68.667L163.926,68.125C163.566,66.439 163.517,65.583 163.757,65.216C164.566,63.982 163.095,62.603 161.939,63.512" style="fill:rgb(244,139,4);"/>
    </g>
</svg>
