<svg id="svg" version="1.1" width="400" height="106.95549162294805" viewBox="0 0 400 106.95549162294805" xmlns="http://www.w3.org/2000/svg" xmlns:xlink="http://www.w3.org/1999/xlink" ><g id="svgg"><path id="path0" d="M144.667 41.293 L 144.667 60.919 145.176 61.144 C 145.874 61.453,146.815 62.453,147.119 63.208 L 147.370 63.833 149.393 63.832 L 151.417 63.830 151.723 62.790 C 152.213 61.125,153.233 59.230,154.276 58.045 L 154.750 57.506 155.145 57.838 C 155.421 58.069,155.491 58.231,155.378 58.376 C 154.942 58.937,154.000 62.417,154.000 63.468 C 154.000 64.326,154.319 63.715,154.658 62.208 C 154.859 61.315,155.214 60.087,155.446 59.481 L 155.868 58.379 157.197 58.939 C 157.928 59.248,158.664 59.500,158.833 59.500 C 159.523 59.500,159.618 59.641,159.482 60.466 C 159.411 60.897,159.349 62.131,159.343 63.208 L 159.333 65.167 158.917 65.167 C 158.657 65.167,158.500 65.261,158.500 65.417 C 158.500 65.568,158.655 65.667,158.893 65.667 C 159.235 65.667,159.735 70.623,159.426 70.959 C 159.405 70.982,158.832 71.190,158.152 71.421 C 157.473 71.651,156.705 71.958,156.447 72.103 C 156.188 72.248,155.952 72.340,155.923 72.308 C 155.728 72.100,155.009 70.074,154.822 69.208 C 154.690 68.593,154.511 68.167,154.385 68.167 C 154.059 68.167,154.291 69.514,154.903 71.167 C 155.468 72.696,155.458 72.759,154.569 73.265 C 153.751 73.732,151.754 70.036,151.386 67.375 L 151.288 66.667 149.331 66.667 L 147.374 66.667 147.157 67.189 C 146.859 67.909,146.261 68.586,145.397 69.180 L 144.667 69.683 144.667 76.591 L 144.667 83.500 148.911 83.500 L 153.155 83.500 153.203 81.837 L 153.250 80.174 153.833 80.715 C 161.461 87.791,174.247 84.931,178.981 75.090 C 181.322 70.222,181.721 63.334,179.958 58.250 C 179.767 57.699,178.447 54.943,178.122 54.418 C 177.528 53.457,175.699 51.428,174.664 50.581 C 173.260 49.432,172.374 48.918,169.952 47.846 C 167.443 46.735,162.995 46.413,160.150 47.137 C 158.821 47.475,156.500 48.468,156.500 48.699 C 156.500 48.773,156.422 48.833,156.327 48.833 C 156.039 48.833,155.139 49.528,154.125 50.534 L 153.167 51.486 153.167 36.576 L 153.167 21.667 148.917 21.667 L 144.667 21.667 144.667 41.293 M306.333 52.583 L 306.333 83.500 310.658 83.500 L 314.982 83.500 315.046 72.625 C 315.123 59.290,315.208 58.735,317.505 56.491 C 320.800 53.273,326.298 53.948,328.129 57.796 L 328.583 58.750 328.628 71.125 L 328.673 83.500 333.010 83.500 L 337.347 83.500 337.292 70.458 L 337.238 57.417 336.774 55.684 C 335.197 49.790,331.038 46.764,324.500 46.753 C 321.507 46.749,317.090 48.125,316.450 49.263 C 316.377 49.393,316.235 49.500,316.136 49.500 C 316.036 49.500,315.759 49.706,315.519 49.958 L 315.083 50.417 315.041 36.042 L 314.998 21.667 310.666 21.667 L 306.333 21.667 306.333 52.583 M212.350 24.260 C 212.157 24.586,212.000 24.904,212.000 24.966 C 212.000 25.029,211.743 25.606,211.429 26.249 C 210.891 27.348,209.881 29.480,208.547 32.333 C 208.225 33.021,207.625 34.296,207.213 35.167 C 206.801 36.037,206.238 37.237,205.961 37.833 C 205.685 38.429,205.122 39.629,204.710 40.500 C 204.298 41.371,203.808 42.421,203.621 42.833 C 203.184 43.796,203.038 44.100,202.836 44.458 C 202.746 44.619,202.400 45.350,202.067 46.083 C 201.542 47.239,200.393 49.686,199.329 51.917 C 198.678 53.279,196.711 57.480,195.465 60.167 C 195.188 60.762,194.568 62.075,194.085 63.083 C 193.603 64.092,192.965 65.442,192.668 66.083 C 192.371 66.725,191.791 67.962,191.379 68.833 C 190.968 69.704,190.405 70.904,190.128 71.500 C 189.851 72.096,189.288 73.296,188.877 74.167 C 188.465 75.037,187.975 76.087,187.788 76.500 C 187.351 77.462,187.204 77.766,187.003 78.125 C 186.913 78.285,186.535 79.092,186.162 79.917 C 185.790 80.742,185.263 81.849,184.993 82.377 C 184.722 82.906,184.500 83.375,184.500 83.419 C 184.500 83.464,186.664 83.500,189.310 83.500 L 194.119 83.500 194.831 81.875 C 195.222 80.981,195.802 79.688,196.119 79.000 C 196.711 77.716,197.304 76.422,197.837 75.250 C 198.004 74.883,198.403 74.021,198.723 73.333 C 199.044 72.646,199.533 71.577,199.809 70.958 L 200.312 69.833 212.211 69.833 L 224.110 69.833 224.498 70.708 C 224.712 71.190,225.033 71.921,225.211 72.333 C 225.390 72.746,225.703 73.458,225.907 73.917 C 226.380 74.977,227.828 78.311,228.007 78.750 C 228.082 78.933,228.361 79.571,228.628 80.167 C 228.894 80.762,229.331 81.754,229.598 82.371 L 230.083 83.491 234.875 83.496 C 237.510 83.498,239.667 83.460,239.667 83.412 C 239.667 83.334,239.083 82.025,238.181 80.083 C 238.011 79.717,236.203 75.667,234.163 71.083 C 232.124 66.500,230.328 62.487,230.173 62.167 C 229.714 61.218,229.552 60.857,221.065 41.875 C 216.588 31.860,212.874 23.667,212.812 23.667 C 212.750 23.667,212.542 23.933,212.350 24.260 M61.210 24.704 C 61.111 25.004,60.834 25.756,60.595 26.374 C 59.833 28.350,59.307 29.738,59.160 30.167 C 59.026 30.558,58.870 30.969,57.744 33.917 C 57.499 34.558,57.161 35.458,56.994 35.917 C 56.826 36.375,56.489 37.275,56.243 37.917 C 55.140 40.801,54.961 41.275,54.827 41.667 C 54.688 42.068,54.256 43.219,53.385 45.500 C 52.483 47.860,52.144 48.768,52.015 49.167 C 51.940 49.396,51.727 49.958,51.540 50.417 C 51.218 51.208,50.886 52.089,50.128 54.167 C 49.944 54.671,49.655 55.421,49.487 55.833 C 49.181 56.583,48.604 58.107,47.973 59.833 C 47.529 61.047,46.867 62.764,46.539 63.550 L 46.275 64.184 45.956 63.384 C 45.781 62.943,45.487 62.208,45.303 61.750 C 45.119 61.292,44.816 60.504,44.630 60.000 C 44.444 59.496,44.227 59.012,44.146 58.925 C 44.066 58.838,44.000 58.660,44.000 58.529 C 44.000 58.399,43.805 57.832,43.567 57.271 C 42.922 55.751,42.569 54.878,42.075 53.583 C 41.830 52.942,41.488 52.102,41.315 51.717 C 41.142 51.333,41.000 50.941,41.000 50.847 C 41.000 50.753,40.858 50.355,40.684 49.963 C 40.237 48.953,39.804 47.877,38.918 45.583 C 38.494 44.483,38.006 43.246,37.833 42.833 C 37.661 42.421,37.325 41.558,37.086 40.917 C 36.848 40.275,36.506 39.394,36.326 38.958 C 36.021 38.217,35.801 37.671,35.017 35.708 C 34.843 35.273,34.500 34.392,34.253 33.750 C 34.007 33.108,33.666 32.246,33.496 31.833 C 33.326 31.421,32.986 30.558,32.742 29.917 C 32.497 29.275,32.155 28.435,31.982 28.051 C 31.808 27.666,31.667 27.235,31.667 27.092 C 31.667 26.864,31.094 26.833,26.833 26.833 C 24.175 26.833,22.000 26.891,22.000 26.961 C 22.000 27.125,22.542 28.580,22.884 29.333 C 23.030 29.654,23.390 30.554,23.685 31.333 C 23.979 32.112,24.283 32.821,24.360 32.908 C 24.437 32.995,24.500 33.169,24.500 33.294 C 24.500 33.419,24.688 33.931,24.917 34.432 C 25.146 34.933,25.333 35.414,25.333 35.500 C 25.333 35.587,25.477 35.979,25.652 36.371 C 25.827 36.763,26.169 37.571,26.412 38.167 C 26.654 38.762,26.994 39.587,27.167 40.000 C 27.339 40.412,27.722 41.387,28.017 42.167 C 28.312 42.946,28.617 43.655,28.694 43.742 C 28.770 43.829,28.833 44.009,28.833 44.142 C 28.833 44.275,29.010 44.766,29.225 45.233 C 29.440 45.701,29.783 46.533,29.987 47.083 C 30.351 48.062,30.653 48.820,31.417 50.667 C 31.625 51.171,31.962 51.996,32.166 52.500 C 32.369 53.004,32.677 53.737,32.851 54.129 C 33.025 54.521,33.167 54.916,33.167 55.005 C 33.167 55.095,33.354 55.557,33.583 56.032 C 33.813 56.507,34.003 56.975,34.006 57.073 C 34.009 57.170,34.156 57.550,34.333 57.917 C 34.510 58.283,34.658 58.675,34.661 58.787 C 34.664 58.899,34.810 59.312,34.985 59.704 C 35.274 60.349,35.554 61.024,36.490 63.333 C 36.657 63.746,36.949 64.458,37.137 64.917 C 37.326 65.375,37.680 66.275,37.925 66.917 C 38.170 67.558,38.512 68.398,38.685 68.783 C 38.858 69.167,39.000 69.559,39.000 69.653 C 39.000 69.747,39.143 70.145,39.319 70.537 C 39.607 71.182,39.887 71.857,40.823 74.167 C 40.991 74.579,41.282 75.292,41.470 75.750 C 41.659 76.208,42.014 77.108,42.258 77.750 C 42.503 78.392,42.845 79.231,43.018 79.616 C 43.192 80.000,43.333 80.387,43.333 80.475 C 43.333 80.563,43.475 80.924,43.649 81.276 C 43.929 81.846,44.648 83.626,45.492 85.844 C 46.123 87.501,46.192 87.459,47.121 84.833 C 47.578 83.542,47.814 82.902,48.269 81.708 C 49.271 79.082,49.526 78.394,49.610 78.083 C 49.659 77.900,49.809 77.504,49.943 77.203 C 50.077 76.903,50.325 76.265,50.493 75.787 C 50.661 75.308,50.998 74.392,51.243 73.750 C 51.487 73.108,51.727 72.433,51.777 72.250 C 51.826 72.067,52.000 71.617,52.162 71.250 C 52.324 70.883,52.508 70.396,52.570 70.167 C 52.633 69.938,52.821 69.412,52.989 69.000 C 53.156 68.587,53.445 67.837,53.631 67.333 C 53.816 66.829,54.319 65.479,54.748 64.333 C 55.177 63.188,55.680 61.837,55.865 61.333 C 56.050 60.829,56.375 59.967,56.586 59.417 C 56.798 58.867,57.127 57.985,57.319 57.458 C 58.203 55.023,58.392 54.521,58.766 53.614 C 58.987 53.081,59.167 52.556,59.168 52.447 C 59.168 52.339,59.278 52.040,59.412 51.783 C 59.546 51.526,59.726 51.076,59.812 50.783 C 60.539 48.304,61.069 47.383,61.304 48.188 C 61.450 48.685,62.002 50.211,62.773 52.250 C 62.912 52.617,63.204 53.404,63.422 54.000 C 63.640 54.596,63.931 55.383,64.067 55.750 C 64.204 56.117,64.550 57.054,64.836 57.833 C 65.123 58.612,65.542 59.737,65.769 60.333 C 65.995 60.929,66.283 61.717,66.410 62.083 C 66.536 62.450,66.836 63.275,67.077 63.917 C 67.318 64.558,67.669 65.533,67.857 66.083 C 68.045 66.633,68.257 67.158,68.327 67.250 C 68.398 67.342,68.498 67.604,68.549 67.833 C 68.601 68.063,68.869 68.850,69.145 69.583 C 69.421 70.317,69.845 71.442,70.087 72.083 C 70.329 72.725,70.627 73.550,70.749 73.917 C 70.871 74.283,71.173 75.108,71.420 75.750 C 72.053 77.391,72.641 78.969,72.910 79.750 C 73.036 80.117,73.324 80.904,73.550 81.500 C 74.006 82.701,74.230 83.310,74.715 84.667 C 75.647 87.279,75.733 87.405,76.062 86.649 C 76.472 85.705,77.837 82.465,78.161 81.667 C 78.328 81.254,78.704 80.354,78.996 79.667 C 79.288 78.979,79.591 78.267,79.669 78.083 C 79.746 77.900,80.008 77.262,80.250 76.667 C 80.493 76.071,80.833 75.283,81.006 74.917 C 81.179 74.550,81.577 73.612,81.890 72.833 C 82.596 71.076,82.705 70.815,83.587 68.750 C 83.979 67.833,84.501 66.596,84.748 66.000 C 84.994 65.404,85.293 64.692,85.411 64.417 C 85.684 63.783,86.373 62.139,86.931 60.792 C 87.168 60.219,87.459 59.525,87.578 59.250 C 87.935 58.420,88.678 56.636,89.035 55.750 C 89.220 55.292,89.426 54.804,89.493 54.667 C 89.602 54.441,90.265 52.856,91.201 50.583 C 91.390 50.125,91.679 49.450,91.843 49.083 C 92.008 48.717,92.345 47.929,92.593 47.333 C 92.840 46.737,93.183 45.932,93.355 45.543 C 93.526 45.155,93.667 44.798,93.667 44.750 C 93.667 44.702,93.823 44.308,94.014 43.873 C 94.205 43.439,94.535 42.671,94.747 42.167 C 94.960 41.662,95.450 40.500,95.836 39.583 C 96.743 37.431,97.473 35.719,97.767 35.058 C 97.895 34.769,98.000 34.478,98.000 34.410 C 98.000 34.342,98.140 33.978,98.312 33.602 C 98.484 33.225,98.830 32.429,99.081 31.833 C 99.574 30.661,99.752 30.250,100.385 28.809 C 100.613 28.291,100.851 27.635,100.913 27.350 L 101.026 26.833 96.304 26.833 L 91.581 26.833 91.357 27.339 C 91.234 27.618,90.834 28.574,90.469 29.464 C 90.104 30.355,89.465 31.908,89.050 32.917 C 88.308 34.717,87.974 35.547,87.357 37.125 C 87.187 37.560,86.933 38.179,86.792 38.500 C 86.652 38.821,86.379 39.477,86.185 39.958 C 85.992 40.440,85.675 41.227,85.481 41.708 C 85.288 42.190,84.959 42.996,84.750 43.500 C 84.307 44.571,83.763 45.910,83.295 47.083 C 82.984 47.863,82.527 48.964,81.948 50.333 C 81.812 50.654,81.496 51.442,81.246 52.083 C 80.995 52.725,80.658 53.550,80.497 53.917 C 80.336 54.283,79.998 55.108,79.747 55.750 C 79.496 56.392,79.150 57.231,78.978 57.616 C 78.807 58.000,78.667 58.387,78.667 58.475 C 78.667 58.563,78.518 58.924,78.336 59.276 C 78.025 59.879,77.030 62.264,76.593 63.455 C 76.299 64.255,76.241 64.248,75.932 63.379 C 75.174 61.244,74.192 58.583,73.813 57.636 C 73.641 57.206,73.500 56.774,73.500 56.676 C 73.500 56.577,73.362 56.178,73.194 55.790 C 73.026 55.401,72.794 54.821,72.679 54.500 C 72.564 54.179,72.146 53.017,71.752 51.917 C 71.357 50.817,70.939 49.654,70.824 49.333 C 70.709 49.012,70.445 48.300,70.239 47.750 C 70.032 47.200,69.701 46.300,69.503 45.750 C 69.305 45.200,69.009 44.375,68.844 43.917 C 68.680 43.458,68.338 42.521,68.085 41.833 C 67.833 41.146,67.485 40.190,67.313 39.708 C 66.210 36.625,65.787 35.470,65.268 34.123 C 65.029 33.504,64.833 32.921,64.833 32.830 C 64.833 32.738,64.691 32.345,64.517 31.957 C 64.343 31.568,64.160 31.100,64.110 30.917 C 64.061 30.733,63.782 29.946,63.491 29.167 C 62.770 27.240,62.345 26.072,62.006 25.093 C 61.660 24.089,61.449 23.986,61.210 24.704 M286.167 41.167 L 286.167 47.667 284.417 47.667 L 282.667 47.667 282.667 51.583 L 282.667 55.500 284.417 55.500 L 286.167 55.500 286.167 69.503 L 286.167 83.506 290.458 83.461 L 294.750 83.417 294.793 69.458 L 294.835 55.500 298.001 55.500 L 301.167 55.500 301.167 51.583 L 301.167 47.667 298.000 47.667 L 294.833 47.667 294.833 41.167 L 294.833 34.667 290.500 34.667 L 286.167 34.667 286.167 41.167 M212.667 43.230 C 212.667 43.438,212.985 44.217,213.835 46.083 C 214.169 46.819,214.414 47.378,215.583 50.083 C 216.019 51.092,216.516 52.235,216.688 52.625 C 216.860 53.015,217.140 53.652,217.312 54.042 C 217.484 54.431,217.982 55.575,218.419 56.583 C 219.707 59.557,219.775 59.709,220.225 60.667 L 220.657 61.583 212.385 61.627 C 207.836 61.650,204.078 61.633,204.033 61.588 C 203.944 61.500,204.418 60.390,205.706 57.667 C 206.161 56.704,207.313 54.176,208.266 52.048 C 210.293 47.519,211.138 45.669,212.151 43.542 C 212.419 42.980,212.667 42.830,212.667 43.230 M116.917 46.899 C 113.849 47.488,111.861 48.298,109.508 49.917 C 106.976 51.659,104.111 55.930,102.856 59.833 C 101.144 65.163,102.130 73.353,104.937 77.114 C 105.155 77.406,105.333 77.709,105.333 77.787 C 105.333 78.038,107.506 80.321,108.478 81.092 C 108.994 81.501,109.501 81.904,109.603 81.988 C 109.706 82.071,110.343 82.416,111.020 82.754 C 111.696 83.092,112.376 83.434,112.531 83.513 C 114.038 84.282,119.129 84.846,121.694 84.528 C 127.535 83.803,131.345 81.754,134.451 77.667 C 136.162 75.416,136.219 75.202,135.249 74.704 C 134.942 74.546,133.432 73.704,131.893 72.833 C 130.354 71.962,129.048 71.229,128.990 71.203 C 128.933 71.178,128.581 71.628,128.208 72.203 C 124.293 78.244,116.220 78.619,112.431 72.936 C 112.011 72.305,111.667 71.683,111.667 71.553 C 111.667 71.423,111.553 71.098,111.415 70.830 C 111.229 70.471,110.667 68.125,110.667 67.708 C 110.667 67.685,116.404 67.667,123.417 67.667 L 136.167 67.667 136.167 65.247 C 136.167 59.410,134.309 54.398,130.938 51.139 C 129.631 49.875,129.547 49.805,128.752 49.321 C 127.576 48.605,127.421 48.515,127.167 48.403 C 127.029 48.342,126.506 48.110,126.004 47.888 C 123.754 46.892,119.415 46.420,116.917 46.899 M363.583 46.776 C 360.643 47.252,358.356 48.400,356.227 50.470 C 356.036 50.655,356.000 50.450,356.000 49.179 L 356.000 47.667 351.750 47.667 L 347.500 47.667 347.500 65.583 L 347.500 83.500 351.741 83.500 L 355.982 83.500 356.044 72.708 L 356.106 61.917 356.535 60.250 C 357.700 55.726,359.154 54.500,363.359 54.500 C 367.137 54.500,368.249 55.309,369.311 58.833 L 369.737 60.250 369.793 71.875 L 369.848 83.500 374.098 83.500 L 378.348 83.500 378.288 70.292 C 378.217 54.895,378.213 54.854,376.326 51.879 C 375.516 50.601,372.789 48.167,372.168 48.167 C 372.086 48.167,371.771 48.022,371.468 47.846 C 370.159 47.084,365.547 46.459,363.583 46.776 M245.045 60.292 L 245.121 72.917 245.559 74.485 C 245.800 75.348,246.110 76.227,246.248 76.438 C 246.387 76.649,246.500 76.911,246.500 77.020 C 246.500 77.129,246.688 77.464,246.917 77.765 C 247.146 78.065,247.333 78.393,247.333 78.493 C 247.333 79.170,252.283 83.167,253.122 83.167 C 253.210 83.167,253.525 83.288,253.822 83.436 C 257.862 85.451,265.853 84.688,269.726 81.917 C 272.367 80.027,273.874 78.104,274.822 75.417 C 275.588 73.246,275.667 71.745,275.667 59.304 L 275.667 47.667 271.417 47.667 L 267.167 47.667 267.167 58.708 C 267.167 71.034,267.108 71.882,266.114 73.649 C 263.436 78.409,256.069 77.807,254.088 72.666 L 253.606 71.417 253.536 59.542 L 253.467 47.667 249.218 47.667 L 244.970 47.667 245.045 60.292 M121.583 54.366 C 124.271 54.869,127.500 58.225,127.500 60.515 C 127.500 60.604,124.168 60.667,119.417 60.667 C 114.971 60.667,111.333 60.643,111.333 60.613 C 111.333 60.284,112.017 58.721,112.475 58.005 C 114.474 54.876,117.613 53.622,121.583 54.366 M163.897 54.410 C 164.279 54.994,164.992 57.248,165.144 58.358 L 165.274 59.299 164.678 59.398 C 163.880 59.530,161.340 59.526,160.670 59.392 C 160.067 59.272,160.072 59.372,160.551 57.167 C 160.778 56.125,161.356 54.644,161.706 54.208 C 162.033 53.802,163.593 53.946,163.897 54.410 M165.757 54.353 C 166.628 54.572,168.007 55.810,168.803 57.088 L 169.319 57.917 168.451 58.307 C 167.622 58.679,165.965 59.187,165.874 59.096 C 165.850 59.072,165.617 58.196,165.357 57.149 C 165.096 56.102,164.757 55.002,164.604 54.706 C 164.275 54.071,164.439 54.021,165.757 54.353 M160.579 55.445 C 160.349 56.056,160.077 57.061,159.975 57.678 C 159.709 59.288,159.428 59.369,157.333 58.448 C 157.012 58.306,156.620 58.151,156.461 58.102 C 156.116 57.995,156.208 57.676,156.823 56.833 C 157.897 55.365,158.750 54.697,159.819 54.488 C 161.069 54.244,161.043 54.211,160.579 55.445 M169.250 55.730 C 169.708 56.007,170.143 56.330,170.217 56.450 C 170.290 56.569,170.477 56.669,170.633 56.672 C 170.851 56.676,170.806 56.775,170.440 57.096 C 169.912 57.560,169.695 57.555,169.429 57.073 C 169.330 56.896,168.926 56.356,168.529 55.875 C 167.749 54.929,167.878 54.904,169.250 55.730 M156.556 56.292 C 156.397 56.878,155.742 57.519,155.426 57.397 C 155.162 57.296,155.206 57.203,155.771 56.657 C 156.502 55.951,156.670 55.872,156.556 56.292 M171.723 57.784 C 173.217 59.683,174.253 62.094,174.448 64.125 L 174.548 65.167 173.024 65.167 L 171.500 65.167 171.500 64.041 C 171.500 62.803,170.910 60.210,170.342 58.957 L 169.984 58.165 170.450 57.754 C 171.051 57.226,171.288 57.231,171.723 57.784 M169.746 58.826 C 170.278 59.854,170.823 61.977,170.957 63.542 L 171.096 65.167 168.657 65.167 L 166.218 65.167 166.107 63.125 C 166.046 62.002,165.950 60.768,165.894 60.383 C 165.796 59.715,165.813 59.679,166.271 59.583 C 167.327 59.363,168.603 58.871,169.454 58.356 C 169.475 58.344,169.606 58.555,169.746 58.826 M163.534 59.948 C 165.107 59.868,165.329 59.890,165.405 60.137 C 165.473 60.353,165.831 64.457,165.833 65.032 C 165.833 65.096,165.520 65.171,165.138 65.199 C 164.144 65.272,164.086 65.667,165.069 65.667 C 165.571 65.667,165.832 65.738,165.831 65.875 C 165.823 66.448,165.491 70.138,165.414 70.500 L 165.325 70.917 162.681 70.917 L 160.037 70.917 159.929 69.250 C 159.869 68.333,159.776 67.152,159.722 66.625 L 159.624 65.667 160.409 65.667 C 161.422 65.667,161.365 65.272,160.342 65.198 L 159.626 65.146 159.724 64.198 C 159.779 63.676,159.872 62.456,159.932 61.485 L 160.042 59.720 160.896 59.879 C 161.366 59.966,162.553 59.997,163.534 59.948 M170.948 67.226 C 170.848 68.746,170.347 70.679,169.757 71.820 L 169.490 72.335 168.870 72.022 C 168.529 71.849,167.698 71.531,167.024 71.316 L 165.799 70.923 165.905 70.170 C 165.963 69.756,166.057 68.573,166.114 67.542 L 166.218 65.667 168.634 65.667 L 171.050 65.667 170.948 67.226 M174.442 66.625 C 174.201 68.811,172.955 71.614,171.589 73.044 L 171.150 73.504 170.579 73.069 L 170.009 72.634 170.279 72.025 C 170.810 70.831,171.482 67.927,171.491 66.792 L 171.500 65.667 173.024 65.667 L 174.547 65.667 174.442 66.625 M164.542 71.274 C 165.356 71.408,165.385 72.098,164.671 74.321 C 163.918 76.663,163.644 77.029,162.690 76.967 L 161.917 76.917 161.360 75.789 C 160.869 74.795,160.538 73.660,160.221 71.886 C 160.130 71.373,160.148 71.354,160.772 71.289 C 161.885 71.174,163.891 71.166,164.542 71.274 M159.982 73.029 C 160.174 74.150,160.893 76.282,161.179 76.575 C 161.736 77.146,160.368 76.980,159.417 76.361 C 157.948 75.407,156.245 73.483,156.361 72.909 C 156.466 72.391,159.450 71.344,159.688 71.742 C 159.746 71.838,159.878 72.417,159.982 73.029 M168.167 72.242 C 168.762 72.495,169.274 72.724,169.304 72.752 C 169.561 72.992,167.414 75.445,166.274 76.214 C 164.629 77.325,163.958 77.157,164.677 75.814 C 164.856 75.480,165.358 73.722,165.677 72.316 L 165.851 71.548 166.467 71.665 C 166.806 71.730,167.571 71.990,168.167 72.242 M156.135 73.660 C 156.336 73.931,156.503 74.212,156.508 74.285 C 156.512 74.357,156.845 74.752,157.249 75.162 C 157.652 75.571,157.957 75.932,157.925 75.964 C 157.796 76.093,156.126 75.091,155.463 74.486 L 154.750 73.836 155.143 73.502 C 155.654 73.067,155.703 73.075,156.135 73.660 M170.369 73.497 C 170.715 73.820,170.716 73.836,170.415 74.169 C 170.008 74.619,167.903 76.001,167.630 75.997 C 167.488 75.996,167.476 75.954,167.595 75.872 C 167.928 75.644,169.303 73.860,169.413 73.512 C 169.551 73.077,169.912 73.071,170.369 73.497 " stroke="none" fill="#3424a4" fill-rule="evenodd"></path><path id="path1" d="M141.490 61.472 C 138.074 63.073,138.216 67.876,141.714 69.063 C 143.735 69.749,145.797 68.862,146.667 66.933 L 147.083 66.009 150.292 66.005 L 153.500 66.000 153.500 66.750 L 153.500 67.500 154.250 67.500 L 155.000 67.500 155.000 66.750 C 155.000 66.004,155.003 66.000,155.583 66.000 L 156.167 66.000 156.167 67.083 L 156.167 68.167 157.000 68.167 L 157.833 68.167 157.833 66.333 L 157.833 64.500 152.458 64.493 L 147.083 64.486 146.677 63.618 C 145.710 61.553,143.376 60.588,141.490 61.472 M144.378 63.431 C 146.150 64.750,145.220 67.490,143.000 67.489 C 140.586 67.488,139.784 64.350,141.917 63.247 C 142.560 62.915,143.809 63.008,144.378 63.431 M161.939 63.512 C 161.423 63.918,161.333 64.873,161.766 65.351 C 162.009 65.620,162.009 65.744,161.766 66.814 C 161.330 68.731,161.295 68.667,162.771 68.667 L 164.042 68.667 163.926 68.125 C 163.566 66.439,163.517 65.583,163.757 65.216 C 164.566 63.982,163.095 62.603,161.939 63.512 " stroke="none" fill="#f48b04" fill-rule="evenodd"></path><path id="path2" d="" stroke="none" fill="#6458a8" fill-rule="evenodd"></path><path id="path3" d="" stroke="none" fill="#6458a8" fill-rule="evenodd"></path><path id="path4" d="" stroke="none" fill="#6458a8" fill-rule="evenodd"></path><path id="path5" d="" stroke="none" fill="#6458a8" fill-rule="evenodd"></path></g></svg>